<svg width="24" height="24" viewBox="0 0 24 24" fill="none" xmlns="http://www.w3.org/2000/svg">
<path d="M13.4082 4.00662L4.26531 5.70698C4.11097 5.73574 4 5.87327 4 6.02705V17.9696C4 18.1234 4.11097 18.2609 4.26531 18.2896L13.4082 19.99C13.4286 19.9937 13.449 20 13.4694 20C13.5446 20 13.6148 19.9775 13.6735 19.93C13.7487 19.8687 13.7959 19.775 13.7959 19.6799V4.31669C13.7959 4.22167 13.7487 4.1279 13.6735 4.06664C13.5982 4.00537 13.5038 3.98912 13.4082 4.00662ZM14.449 5.91703V8.1575H15.102V8.79763H14.449V10.398H15.102V11.0381H14.449V12.6384H15.102V13.2786H14.449V15.199H15.102V15.8391H14.449V18.0796H19.3469C19.7066 18.0796 20 17.792 20 17.4395V6.55716C20 6.20459 19.7066 5.91703 19.3469 5.91703H14.449ZM15.7551 8.1575H18.3673V8.79763H15.7551V8.1575ZM6.18367 9.01768H7.85714L8.73469 10.8081C8.80357 10.9493 8.8648 11.1231 8.91837 11.3182H8.92857C8.96301 11.2019 9.02934 11.0194 9.12245 10.7881L10.0918 9.01768H11.6224L9.79592 11.9783L11.6735 14.9989H10.051L8.9898 13.0485C8.95025 12.976 8.90944 12.8422 8.86735 12.6484H8.85714C8.83673 12.7397 8.78827 12.8822 8.71429 13.0685L7.65306 14.9989H6.02041L7.96939 12.0083L6.18367 9.01768ZM15.7551 10.398H18.3673V11.0381H15.7551V10.398ZM15.7551 12.6384H18.3673V13.2786H15.7551V12.6384ZM15.7551 15.199H18.3673V15.8391H15.7551V15.199Z" fill="#258450"/>
</svg>
